<svg xmlns="http://www.w3.org/2000/svg" width="398" height="100" viewBox="0 0 398 100">
    <g fill="#0CC" fill-rule="evenodd" opacity=".25">
        <path d="M9.956 55.257H0V0h33.934v9.127H9.956v13.69H31.86v9.126H9.956v23.314zm64.633 0L64.135 33.934H53.68v21.323h-9.957V0H72.68a9.1 9.1 0 0 1 9.127 9.127v15.68c0 4.315-2.904 7.883-6.886 8.878l10.62 21.572H74.589zM71.85 22.65V11.284c0-1.245-.996-2.157-2.24-2.157H53.68v15.68h15.93c1.244 0 2.24-.912 2.24-2.157zm33.519 32.607c-5.061 0-9.044-4.065-9.044-9.127V9.127C96.326 4.065 100.31 0 105.37 0h19.498a9.1 9.1 0 0 1 9.126 9.127V46.13a9.1 9.1 0 0 1-9.126 9.127H105.37zm18.668-11.284v-32.69c0-1.244-.996-2.156-2.24-2.156h-13.275c-1.245 0-2.24.912-2.24 2.157v32.69c0 1.244.995 2.156 2.24 2.156h13.275c1.244 0 2.24-.912 2.24-2.157zM188.256 0v55.257h-9.625l-20.908-35.76v35.76H148.1V0h9.624l20.908 35.925V0h9.625zm9.956 9.127V0h39.99v9.127h-15.017v46.13h-9.956V9.127h-15.017zm70.108 36.672l-10.537-23.563v33.021h-9.624V0h9.624l14.769 33.851L287.32 0h9.624v55.257h-9.624V22.236l-10.537 23.563h-8.463zm43.144 9.458V0h33.52v9.127H321.42v13.69h21.489v9.126H321.42V46.13h23.563v9.127h-33.52zM398 0v55.257h-9.624l-20.908-35.76v35.76h-9.625V0h9.625l20.908 35.925V0H398zM5.121 100.422H0V72h17.455v4.694H5.12v7.042h11.267v4.694H5.12v11.992zm34.312 0l-5.377-10.967h-5.377v10.967h-5.122V72h14.894a4.68 4.68 0 0 1 4.695 4.694v8.066a4.677 4.677 0 0 1-3.542 4.567l5.462 11.095h-5.633zm-1.408-16.771v-5.847c0-.64-.512-1.11-1.153-1.11H28.68v8.066h8.193c.64 0 1.153-.47 1.153-1.11zm18.308 16.771c-2.603 0-4.652-2.09-4.652-4.694V76.694c0-2.603 2.049-4.694 4.652-4.694h10.029a4.68 4.68 0 0 1 4.694 4.694v19.034a4.68 4.68 0 0 1-4.694 4.694h-10.03zm9.602-5.804V77.804c0-.64-.512-1.11-1.152-1.11h-6.828c-.64 0-1.153.47-1.153 1.11v16.814c0 .64.512 1.11 1.153 1.11h6.828c.64 0 1.152-.47 1.152-1.11zM100.033 72v28.422h-4.95L84.329 82.03v18.393h-4.95V72h4.95l10.754 18.479V72h4.95zm6.189 4.694V72h20.57v4.694h-7.725v23.728h-5.121V76.694h-7.724zm26.758 23.728V72h17.24v4.694H138.1v7.042h11.054v4.694h-11.053v7.298h12.12v4.694H132.98zM178.558 72v28.422h-4.95L162.853 82.03v18.393h-4.95V72h4.95l10.755 18.479V72h4.95zm8.535 28.422V72h13.87a4.68 4.68 0 0 1 4.695 4.694v19.034a4.68 4.68 0 0 1-4.695 4.694h-13.87zm13.443-5.804V77.804c0-.64-.512-1.11-1.152-1.11h-7.17v19.034h7.17c.64 0 1.152-.47 1.152-1.11zm24.753 5.804V72h17.24v4.694h-12.12v7.042h11.054v4.694H230.41v7.298h12.12v4.694h-17.241zM253.882 72l5.249 9.346L264.423 72h5.377l-7.852 13.998 8.066 14.424h-5.378l-5.505-9.772-5.463 9.772h-5.377l8.023-14.424L248.504 72h5.378zm22.746 28.422V72h14.468a4.68 4.68 0 0 1 4.694 4.694v8.066a4.68 4.68 0 0 1-4.694 4.695h-9.346v10.967h-5.122zm14.04-16.771v-5.847c0-.64-.511-1.11-1.151-1.11h-7.767v8.066h7.767c.64 0 1.152-.47 1.152-1.11zm11.737 16.771V72h17.241v4.694h-12.12v7.042h11.053v4.694h-11.053v7.298h12.12v4.694h-17.241zm40.799 0l-5.378-10.967h-5.377v10.967h-5.121V72h14.894a4.68 4.68 0 0 1 4.694 4.694v8.066a4.677 4.677 0 0 1-3.542 4.567l5.463 11.095h-5.633zm-1.409-16.771v-5.847c0-.64-.512-1.11-1.152-1.11h-8.194v8.066h8.194c.64 0 1.152-.47 1.152-1.11zm11.096-6.957V72h20.57v4.694h-7.724v23.728h-5.122V76.694h-7.724zm38.836 12.633c-3.244-.897-4.481-1.238-7.64-2.177-2.517-.768-4.566-2.006-4.566-4.609v-5.847c0-2.603 2.049-4.694 4.652-4.694h9.047a4.68 4.68 0 0 1 4.695 4.694v3.33l-5.122.853v-3.073c0-.64-.512-1.11-1.152-1.11h-5.846c-.64 0-1.153.47-1.153 1.11v3.542c0 .64.512 1.067 1.153 1.238 2.517.725 4.651 1.28 7.767 2.176 2.432.683 4.438 2.006 4.438 4.61v6.358c0 2.603-2.048 4.694-4.652 4.694h-9.218a4.68 4.68 0 0 1-4.694-4.694v-3.243l5.12-.854v2.987c0 .64.513 1.11 1.153 1.11h6.018c.64 0 1.152-.47 1.152-1.11v-4.096c0-.64-.47-1.025-1.152-1.195z"/>
    </g>
</svg>
